<?xml version="1.0" standalone="no"?>
<!DOCTYPE svg PUBLIC "-//W3C//DTD SVG 20010904//EN"
 "http://www.w3.org/TR/2001/REC-SVG-20010904/DTD/svg10.dtd">
<svg version="1.0" xmlns="http://www.w3.org/2000/svg"
 width="309.000000pt" height="55.000000pt" viewBox="0 0 345.000000 55.000000"
 preserveAspectRatio="xMidYMid meet">

<g transform="translate(0.000000,55.000000) scale(0.100000,-0.100000)"
fill="#ff3f4b" stroke="none">
<path d="M77 513 c-4 -3 -7 -17 -7 -29 0 -17 7 -23 28 -26 l27 -3 3 -178 2
-177 -30 -6 c-30 -6 -36 -18 -24 -48 5 -13 23 -16 90 -16 86 0 84 -1 88 42 1
7 -10 15 -24 18 -23 6 -25 10 -25 70 l0 65 100 5 c121 6 158 23 186 83 10 23
19 51 19 61 0 40 -39 102 -79 124 -35 20 -53 22 -193 22 -85 0 -158 -3 -161
-7z m327 -72 c33 -31 41 -72 22 -110 -23 -43 -44 -51 -140 -51 l-86 0 0 96 0
96 89 -4 c78 -3 93 -6 115 -27z"/>
<path d="M557 513 c-4 -3 -7 -17 -7 -30 0 -18 6 -23 24 -23 13 0 27 -7 30 -16
10 -27 7 -314 -4 -335 -6 -10 -20 -19 -31 -19 -16 0 -20 -5 -17 -28 3 -27 3
-27 91 -30 l87 -3 0 30 c0 23 -5 30 -22 33 -23 3 -23 4 -23 183 0 179 0 180
23 183 17 3 22 10 22 33 l0 29 -83 0 c-46 0 -87 -3 -90 -7z"/>
<path d="M817 513 c-3 -5 -12 -35 -21 -68 -16 -64 -11 -78 29 -73 15 2 22 14
29 46 l9 42 104 0 104 0 -59 -72 c-33 -40 -98 -120 -146 -177 -86 -104 -91
-116 -80 -158 6 -23 8 -23 180 -23 l173 0 21 71 c23 77 20 89 -27 89 -17 0
-24 -9 -32 -38 -6 -20 -11 -43 -11 -49 0 -10 -29 -13 -110 -13 -60 0 -110 2
-110 5 0 3 50 65 110 138 153 182 183 227 174 260 l-6 27 -163 0 c-90 0 -166
-3 -168 -7z"/>
<path d="M1236 453 c-14 -54 -15 -68 -4 -74 31 -20 48 -9 59 36 l11 45 99 0
c55 0 99 -2 99 -6 0 -3 -63 -82 -140 -175 -137 -166 -151 -190 -134 -233 5
-14 31 -16 179 -16 l173 0 17 64 c20 74 16 96 -19 96 -22 0 -27 -7 -39 -47
l-14 -48 -112 -3 -112 -3 94 113 c188 226 197 240 197 280 l0 38 -169 0 -169
0 -16 -67z"/>
<path d="M1780 490 c0 -23 4 -30 20 -30 11 0 20 -3 20 -7 0 -24 -130 -349
-141 -355 -8 -3 -22 -9 -31 -12 -11 -3 -18 -15 -18 -31 0 -25 1 -25 84 -25 81
0 84 1 88 25 6 29 2 35 -25 35 -21 0 -19 22 8 87 l14 34 83 -3 c78 -3 83 -4
95 -29 7 -15 16 -41 19 -58 6 -27 4 -31 -15 -31 -17 0 -21 -6 -21 -30 l0 -30
91 0 90 0 -3 27 c-2 19 -10 29 -28 33 -21 5 -33 26 -82 155 -32 83 -67 178
-79 213 l-21 62 -74 0 -74 0 0 -30z m139 -139 c17 -47 31 -88 31 -93 0 -4 -31
-8 -70 -8 -38 0 -70 2 -70 4 0 8 52 151 62 169 5 10 11 17 13 15 2 -2 17 -41
34 -87z"/>
<path d="M2165 499 c-8 -24 1 -35 30 -41 19 -3 20 -11 20 -183 l0 -180 -28 -3
c-24 -3 -28 -7 -23 -25 3 -12 6 -26 6 -30 0 -4 39 -6 88 -5 86 3 87 3 90 30 3
23 -1 27 -25 30 -28 3 -28 4 -31 77 -2 41 1 78 7 84 5 5 29 7 55 3 60 -9 98
-46 126 -123 30 -82 55 -105 111 -101 40 3 44 6 47 31 3 24 0 27 -26 27 -35 0
-44 10 -68 70 -9 25 -31 60 -47 78 -25 25 -27 32 -13 32 30 0 75 29 91 60 33
64 7 142 -58 173 -28 14 -66 17 -190 17 -149 0 -156 -1 -162 -21z m324 -55
c38 -32 42 -76 9 -111 -19 -21 -30 -23 -115 -23 l-93 0 0 80 0 80 84 0 c76 0
87 -3 115 -26z"/>
<path d="M2687 513 c-4 -3 -7 -17 -7 -29 0 -17 7 -23 28 -26 l27 -3 3 -178 2
-177 -30 -6 c-30 -6 -36 -18 -24 -48 5 -13 23 -16 90 -16 86 0 84 -1 88 42 1
7 -10 15 -24 18 l-25 6 0 179 0 179 25 6 c14 3 25 11 24 18 -4 43 -2 42 -87
42 -46 0 -87 -3 -90 -7z"/>
<path d="M3037 494 c-3 -20 1 -27 19 -34 l24 -9 -20 -53 c-115 -304 -114 -302
-140 -308 -18 -4 -26 -14 -28 -33 l-3 -27 85 0 86 0 0 30 c0 24 -4 30 -21 30
-19 0 -21 4 -15 31 3 17 12 43 19 58 12 25 17 26 95 29 l82 3 20 -46 c25 -59
25 -75 0 -75 -16 0 -20 -7 -20 -30 l0 -30 91 0 90 0 -3 27 c-2 20 -10 29 -28
33 -21 5 -32 23 -67 110 -23 58 -59 153 -80 212 l-38 108 -71 0 c-69 0 -72 -1
-77 -26z m137 -136 c16 -46 31 -89 34 -95 3 -10 -14 -13 -67 -13 -39 0 -71 3
-71 8 0 13 64 182 70 182 3 0 18 -37 34 -82z"/>
</g>
</svg>
